{
	"nodes":[{
		"rotation":[0.0,
		0.0,
		0.0,
		-1.0],
		"name":"X_GEO_FLAT",
		"translation":[0.7442853450775147,
		4.753857135772705,
		26.37610626220703],
		"scale":[1.0,
		1.0,
		1.0],
		"mesh":0
	}],
	"asset":{
		"version":"2.0",
		"generator":"Created using the official Cinema 4D glTF Exporter 1.000x284978"
	},
	"scenes":[{
		"nodes":[0]
	}],
	"meshes":[{
		"name":"X_GEO_FLAT",
		"primitives":[{
			"attributes":{
				"POSITION":1,
				"TEXCOORD_0":3,
				"NORMAL":2
			},
			"indices":0,
			"material":0
		}]
	}],
	"accessors":[{
		"bufferView":0,
		"max":[8063],
		"type":"SCALAR",
		"componentType":5123,
		"count":18432,
		"byteOffset":0,
		"min":[0]
	},
	{
		"bufferView":1,
		"max":[47.46437454223633,
		37.42401885986328,
		76.85920715332031],
		"type":"VEC3",
		"componentType":5126,
		"count":8064,
		"byteOffset":0,
		"min":[-52.225040435791019,
		-37.72693634033203,
		-78.59188079833985]
	},
	{
		"bufferView":1,
		"max":[0.7143277525901794,
		1.0,
		1.0],
		"type":"VEC3",
		"componentType":5126,
		"count":8064,
		"byteOffset":12,
		"min":[-0.7144168019294739,
		-1.0,
		-1.0]
	},
	{
		"bufferView":1,
		"max":[1.0,
		1.0],
		"type":"VEC2",
		"componentType":5126,
		"count":8064,
		"byteOffset":24,
		"min":[0.0,
		0.0]
	}],
	"bufferViews":[{
		"buffer":0,
		"byteOffset":0,
		"byteLength":36864,
		"target":34963
	},
	{
		"buffer":0,
		"byteOffset":36864,
		"byteLength":258048,
		"target":34962,
		"byteStride":32
	}],
	"buffers":[{
		"uri":"data:application/octet-stream;base64,",
		"byteLength":294912
	}],
	"materials":[{
		"pbrMetallicRoughness":{
			"baseColorFactor":[1.0,
			1.0,
			1.0,
			1.0],
			"metallicFactor":1.0,
			"roughnessFactor":1.0
		},
		"emissiveFactor":[0.0,
		0.0,
		0.0],
		"alphaMode":"OPAQUE",
		"doubleSided":false,
		"name":""
	}]
}